# xmcd
#
# Track frame offsets:
#	150
#	17005
#	34613
#	53895
#	72037
#	88672
#	103726
#	119009
#	137407
#	154884
#	174137
#	194108
#
# Disc length: 2793 seconds
#
# Revision: 1
# Processed by: cddbd v1.5.2PL0 Copyright (c) Steve Scherf et al.
# Submitted via: audiograbber 1.83.01
#
DISCID=9f0ae70c
DTITLE=Dave Sammarco Band - Born With A Broken Heart
DYEAR=2007
DGENRE=Country
TTITLE0=Born With A Broken Heart
TTITLE1=Just What I Wanna Do
TTITLE2=Someone Like You
TTITLE3=Long Way Round Your Heart
TTITLE4=I'm So Lonesome It Hurts
TTITLE5=Hanging On By The Skin Of My Teeth
TTITLE6=Honkytonk Shadows
TTITLE7=Is It Too Late
TTITLE8=Think Twice Before You Tie The Knot
TTITLE9=Thought I Knew
TTITLE10=Hurricane
TTITLE11=Looks Like Whiskey Time Again
EXTD=
EXTT0=
EXTT1=
EXTT2=
EXTT3=
EXTT4=
EXTT5=
EXTT6=
EXTT7=
EXTT8=
EXTT9=
EXTT10=
EXTT11=
PLAYORDER=
